<svg width="40" height="40" viewBox="0 0 40 40" xmlns="http://www.w3.org/2000/svg"><title>80 - Spotlight</title><g id="Page-1" fill="none" fill-rule="evenodd"><g id="80---Spotlight" fill="#82DCD8"><g id="Imported-Layers"><path d="M6.148 33.545c-7.468-7.47-7.468-19.62 0-27.09 7.47-7.468 19.622-7.47 27.09 0 7.47 7.47 7.47 19.622 0 27.09-7.468 7.47-19.62 7.47-27.09 0zm25.26-25.26c-6.46-6.458-16.97-6.46-23.43 0-6.457 6.46-6.458 16.97 0 23.428 6.46 6.46 16.972 6.46 23.43 0 6.46-6.458 6.458-16.967 0-23.427z" id="Fill-1"/><path d="M25.52 12.34a1.298 1.298 0 0 1 1.833 0 1.298 1.298 0 0 1 0 1.834L13.868 27.66a1.298 1.298 0 0 1-1.833 0 1.298 1.298 0 0 1 0-1.834L25.52 12.34" id="Fill-2"/><path d="M27.353 25.826a1.298 1.298 0 0 1 0 1.833 1.298 1.298 0 0 1-1.833 0L12.035 14.173a1.298 1.298 0 0 1 0-1.833 1.298 1.298 0 0 1 1.833 0l13.485 13.486" id="Fill-3"/></g></g></g></svg>