<svg id="图层_1" xmlns="http://www.w3.org/2000/svg" viewBox="0 0 40 40"><path fill="#FFF" d="M38.1 19.1l-1.5-1.3L21 4c-.4-.3-1-.3-1.3 0L1.9 19.6c-.3.3-.4.7-.3 1.1.1.4.5.7 1 .7h5.3v12.8c0 1.1 1 2.1 2.2 2.1h5.6c.1 0 .3 0 .4-.1.6-.2 1-.8 1-1.6v-8.1h6.3v8c0 .8.4 1.4 1 1.6.1 0 .3.1.4.1h5.7c1.2 0 2.2-.9 2.2-2.1V22.3c0-.6-.5-1-1-1-.6 0-1 .5-1 1v11.8s0 .1-.1.1h-5.1v-8c0-.9-.6-1.7-1.4-1.7h-7.5c-.8 0-1.4.7-1.4 1.7v8.1h-5.1V20.5v-.1c0-.3-.1-.6-.3-.8-.2-.2-.5-.3-.7-.3H5.3L20.3 6l15 13.2 1.5 1.3c.2.2.4.3.7.3.3 0 .6-.1.8-.3.2-.4.2-1-.2-1.4z"/></svg>